<svg xmlns="http://www.w3.org/2000/svg" width="109" height="109" fill="none"><rect width="109" height="109" fill="url(#a)" rx="54.5"/><path fill="#fff" d="M50.562 93h-10.71c-2.312 0-3.842-.374-4.59-1.122-.68-.748-1.02-2.278-1.02-4.59V25.17c0-2.38.374-3.944 1.122-4.692.748-.816 2.244-1.224 4.488-1.224h10.71V93zM75.96 47.712v6.12c0 2.448-.238 4.012-.714 4.692-.476.612-1.836.918-4.08.918H54.642v-11.73H75.96zm4.08-28.458v8.772c0 2.312-.374 3.842-1.122 4.59-.748.68-2.312 1.02-4.692 1.02H54.642V19.254H80.04z"/><defs><linearGradient id="a" x1="30" x2="91" y1="27" y2="109" gradientUnits="userSpaceOnUse"><stop stop-color="#40004A"/><stop offset="1" stop-color="#730086"/></linearGradient></defs></svg>